<mxfile host="app.diagrams.net" modified="2023-08-31T17:08:48.512Z" agent="Mozilla/5.0 (Windows NT 10.0; Win64; x64) AppleWebKit/537.36 (KHTML, like Gecko) Chrome/116.0.0.0 Safari/537.36" version="21.6.9" etag="s1WXWE5JTLp5-iN4D0Bl" type="github">
  <diagram name="Page-1" id="8COnSRU2M8LVrnHPRVo5">
    <mxGraphModel>
      <root>
        <mxCell id="0" />
        <mxCell id="1" parent="0" />
      </root>
    </mxGraphModel>
  </diagram>
</mxfile>
